<?xml version="1.0" standalone="no"?><!DOCTYPE svg PUBLIC "-//W3C//DTD SVG 1.1//EN" "http://www.w3.org/Graphics/SVG/1.1/DTD/svg11.dtd"><svg t="1775273991271" class="icon" viewBox="0 0 1024 1024" version="1.1" xmlns="http://www.w3.org/2000/svg" p-id="3727" xmlns:xlink="http://www.w3.org/1999/xlink" width="48" height="48"><path d="M139.706147 0h186.274862C403.254373 0 465.687156 62.432784 465.687156 139.706147v186.274862C465.687156 403.254373 403.254373 465.687156 325.981009 465.687156H139.706147C62.432784 465.175412 0 402.742629 0 325.469265V139.706147C0 62.432784 62.432784 0 139.706147 0z m0 74.202899c-35.822089 0-64.991504 29.169415-64.991504 64.991504v186.274862c0 35.822089 29.169415 64.991504 64.991504 64.991505h186.274862c35.822089 0 64.991504-29.169415 64.991505-64.991505V139.706147c0-35.822089-29.169415-64.991504-64.991505-64.991504H139.706147z m0 484.109945h186.274862c77.273363 0 139.706147 62.432784 139.706147 139.706147v186.274862c0 77.273363-62.432784 139.706147-139.706147 139.706147H139.706147C62.432784 1023.488256 0 961.055472 0 883.782109v-186.274863c0-76.761619 62.432784-139.194403 139.706147-139.194402z m0 74.202898c-35.822089 0-64.991504 29.169415-64.991504 64.991504v186.274863c0 35.822089 29.169415 64.991504 64.991504 64.991504h186.274862c35.822089 0 64.991504-29.169415 64.991505-64.991504v-186.274863c0-35.822089-29.169415-64.991504-64.991505-64.991504H139.706147zM698.018991 0h186.274862c76.761619 0 139.194403 62.432784 139.194403 139.706147v186.274862c0 77.273363-62.432784 139.706147-139.706147 139.706147h-186.274863C620.233883 465.687156 557.801099 403.254373 557.801099 325.981009V139.706147C558.312844 62.432784 620.745627 0 698.018991 0z m0 74.202899c-35.822089 0-64.991504 29.169415-64.991505 64.991504v186.274862c0 35.822089 29.169415 64.991504 64.991505 64.991505h186.274862c35.822089 0 64.991504-29.169415 64.991504-64.991505V139.706147c0-35.822089-29.169415-64.991504-64.991504-64.991504h-186.274862v-0.511744zM627.910045 665.267366h325.469265c20.469765 0 37.357321-16.887556 37.357322-37.357321s-16.887556-37.357321-37.357322-37.357321h-325.469265c-20.469765 0-37.357321 16.887556-37.357321 37.357321 0.511744 20.469765 16.887556 37.357321 37.357321 37.357321z m0 162.734633h232.843578c20.469765 0 37.357321-16.887556 37.357322-37.357321s-16.887556-37.357321-37.357322-37.357322h-232.843578c-20.469765 0-37.357321 16.887556-37.357321 37.357322 0.511744 20.981509 16.887556 37.357321 37.357321 37.357321z m0 162.734633H767.616192c20.469765 0 37.357321-16.887556 37.357321-37.357322S788.085957 916.021989 767.616192 916.021989h-139.706147c-20.469765 0-37.357321 16.887556-37.357321 37.357321 0.511744 20.981509 16.887556 37.357321 37.357321 37.357322z" p-id="3728"></path></svg>