<svg id="图层_1" data-name="图层 1" xmlns="http://www.w3.org/2000/svg" viewBox="0 0 633.24909 537.30922"><defs><style>.cls-1{fill:#772e43;stroke:#772e43;stroke-width:5px;}.cls-1,.cls-4{stroke-miterlimit:10;}.cls-2{fill:#45363f;}.cls-3{fill:#fff;}.cls-4{fill:#42210b;stroke:#000;stroke-width:2px;}</style></defs><path class="cls-1" d="M469.90916,242.32621c-19.08911,8.31373-25.14725,28.98514-55.14893,173.87234-12.164,58.7435-15.02194,73.95688-27.57446,96.51065-29.857,53.64566-59.7446,78.89356-59.74469,78.89362-16.73361,14.13589-29.25586,20.24972-28.34043,29.87234,1.382,14.52692,32.909,31.99976,58.97873,26.04255,44.666-10.20667,81.42191-91.04514,89.617-154.72342,1.90414-14.79575,3.10879-35.211,18.383-47.48935,16.00321-12.86435,44.69419-14.58054,58.97873-1.53192,28.86591,26.36834-7.43542,107.23971-9.19153,111.06384-18.68194,40.68219-39.70938,51.785-33.70208,69.70215,6.61694,19.73547,40.9328,32.52337,65.10638,22.9787C566.387,639.96992,574.8086,620.175,581.739,600.79429c24.38647-68.197,17.86023-96.45551,31.40424-153.95743,22.33367-94.81918,55.91485-153.95737,55.91491-153.95746,10.99866-19.36925,27.13-44.4411,17.617-58.97871-7.56537-11.5613-29.486-13.61229-55.91492-16.08512-16.30536-1.52561-24.45807-2.28841-28.34039-.766C562.863,232.56177,607.163,361.40125,558.7602,393.21982c-24.89423,16.36475-69.57825,3.955-77.36169-16.08511-12.34-31.77182,71.31555-74.36688,58.97876-110.29787C533.20808,245.95659,495.01752,231.39094,469.90916,242.32621Z" transform="translate(-58.81188 -115.93762)"/><path class="cls-2" d="M260.758,348.2245c19.04925,39.07979-16.7352,97.2065-38.88646,133.18807-22.06931,35.84842-55.373,88.33386-120.94335,118.3013a231.48925,231.48925,0,0,1-39.14893,13.7872,64.06384,64.06384,0,0,0,7.88682,6.96368A73.0927,73.0927,0,0,0,87.141,629.71384c10.55109,3.68591,21.532,3.74072,34.72341,2.17022a209.20812,209.20812,0,0,0,51.31915-13.02124,268.20113,268.20113,0,0,0,51.82979-27.57449,285.17257,285.17257,0,0,0,46.72339-39.31915,277.23136,277.23136,0,0,0,48.766-71.74469c5.561-11.77729,13.61227-29.10865,18.65869-53.51261,2.69653-13.04013,4.58661-25.04443,4.69775-38.28674a139.44821,139.44821,0,0,0-1.09552-19.49573c-5.11005-36.79553-32.39822-47.819-33.495-75.2581-.30231-7.56326,1.29013-18.92534,11.40426-33.1915a185.98359,185.98359,0,0,1,31.48935-27.40425c12.52216-8.62364,31.31455-17.83059,75.234-31.31914,18.08368-5.55387,45.65549-11.91634,82.04254-17.02128,36.81678-5.16523,68.81238-9.65407,110.55323-5.02128a333.13932,333.13932,0,0,1,56.47656,11.27922,2.04333,2.04333,0,0,0,1.20788-.244c2.546-1.51464.3396-9.504-.36529-12.05645a43.61579,43.61579,0,0,0-7.82752-16.32418A47.80641,47.80641,0,0,0,655.992,150.60748c-27.11774-16.275-57.3758-22.65254-57.37592-22.65255a428.27173,428.27173,0,0,0-74.87939-8.75171,474.46417,474.46417,0,0,0-67.99094,2.70323c-128.22275,13.7016-220.74875,66.18132-235.8579,75.2921A255.2268,255.2268,0,0,0,173.704,233.3553c-3.86287,3.961-7.063,7.58957-9.81608,10.84325-11,13-18,26-27,40-5,9-10,18-14,27-4,12-7,25,0,37,3,5,10,8,16,5,20-11,38-24,59-32,6.89286-2.62586,20.71128-6.326,35-1C250.25173,326.67078,258.35052,343.28557,260.758,348.2245Z" transform="translate(-58.81188 -115.93762)"/><path class="cls-2" d="M258.16757,349.73866c9.81214,20.5414,3.67688,44.89-4.12834,65.01455-8.5456,22.03351-20.80266,42.45213-33.14388,62.52215-9.97546,16.22266-20.14183,32.35523-31.883,47.37762-14.17658,18.13847-30.42292,34.78309-48.95485,48.49944a227.88147,227.88147,0,0,1-79.07581,37.45581,3.02873,3.02873,0,0,0-1.3238,5.01416c9.93531,10.22077,23.34488,17.57731,37.5203,19.54308,8.99267,1.247,18.06977.59447,27.03461-.57539a208.2296,208.2296,0,0,0,26.97239-5.32879c25.74738-6.901,50.10179-18.75355,72.32136-33.36782a279.95485,279.95485,0,0,0,58.426-50.74584,292.68219,292.68219,0,0,0,47.03378-76.35327,231.00965,231.00965,0,0,0,14.78929-50.04178c3.14643-17.5186,4.57025-35.882,1.44334-53.52281-2.46649-13.915-9.0654-26.048-17.07737-37.5-6.50171-9.29325-13.81026-18.69087-15.51261-30.23712-2.003-13.58564,3.87936-28.41532,13.23446-38.13564a167.50489,167.50489,0,0,1,33.44265-27.3148,182.197,182.197,0,0,1,27.63619-13.254c15.032-5.936,30.46583-11.06206,45.99056-15.54321,32.31273-9.32694,65.78293-14.33736,99.08328-18.57908a421.49873,421.49873,0,0,1,53.64357-3.88742,317.7671,317.7671,0,0,1,58.556,5.56992q11.74158,2.21477,23.30444,5.26707c2.82012.74516,6.0562,2.23213,8.96846,2.37751,3.14974.15723,4.97125-2.4513,5.30264-5.26631.63664-5.40794-1.55217-11.86636-3.51495-16.86263a46.96354,46.96354,0,0,0-14.8148-19.75755c-6.22168-4.87317-13.4567-8.51542-20.57289-11.88149A219.78854,219.78854,0,0,0,619.52,130.81753a209.37789,209.37789,0,0,0-28.93527-7.51114,445.87593,445.87593,0,0,0-89.66087-7.29613c-36.654.64046-73.31283,5.46979-109.12824,13.17677a638.84984,638.84984,0,0,0-91.64547,27.06531,592.43611,592.43611,0,0,0-60.9486,26.89,281.01021,281.01021,0,0,0-45.07488,28.29878,229.35851,229.35851,0,0,0-22.437,19.68339c-12.19228,12.39089-21.82148,26.4969-30.92347,41.2318-5.25509,8.50729-10.32445,17.01972-14.93057,25.905-4.31175,8.31749-7.9621,16.63428-9.44159,25.95627-1.37582,8.66878-.831,18.28722,4.131,25.84525,4.03278,6.14257,12.13953,9.10926,19.01355,6.11432,4.328-1.88568,8.41453-4.6514,12.47255-7.0589,4.11644-2.44216,8.20757-4.92662,12.31741-7.37981,7.98755-4.76781,16.05543-9.42941,24.47077-13.40883,15.27138-7.22148,32.63192-11.70841,48.36943-2.8451,9.64228,5.43049,16.23454,14.48561,20.99877,24.25415,1.69236,3.47,6.86842.43191,5.18083-3.02831-4.76737-9.775-11.3723-18.73563-20.53786-24.80463-13.34168-8.83423-30.43637-9.21992-45.16173-3.80936-16.95834,6.231-32.26709,16.08115-47.71231,25.27424-6.54727,3.897-16.05435,12.18728-23.11172,5.01691-6.22734-6.32705-5.76121-17.72023-4.06344-25.68562,2.00355-9.4,6.207-17.67575,10.72558-26.08534,4.58013-8.52425,9.63644-16.69443,14.73633-24.913,8.21616-13.24048,17.18336-25.77964,28.21519-36.84672a236.1749,236.1749,0,0,1,50.28864-38.17825c14.08159-8.0131,28.68248-15.13326,43.48521-21.706a627.78517,627.78517,0,0,1,76.16345-27.975A615.84271,615.84271,0,0,1,449.51516,125.606a496.89456,496.89456,0,0,1,89.94793-2.64365c26.44787,1.69782,53.26961,5.0919,78.46185,13.64085a205.21575,205.21575,0,0,1,22.887,9.26568c6.91174,3.318,14.21642,6.85143,20.09148,11.86522a41.64942,41.64942,0,0,1,13.09424,20.26466,47.49712,47.49712,0,0,1,1.75834,7.46812c.10132.83416.07759,2.51551.13123,2.90168-.09988-.71913.9596.22192.39106-.5546-.09891-.13509-.84062-.24141-1.00923-.28945q-1.22458-.3489-2.45189-.68824A329.05459,329.05459,0,0,0,568.07807,175.24c-17.24244.9034-34.37387,3.11684-51.46562,5.48811-18.09346,2.51025-36.133,5.31495-54.01575,9.06714a458.53621,458.53621,0,0,0-84.18254,26.03525A163.2617,163.2617,0,0,0,353.79805,228.393a179.98,179.98,0,0,0-34.02626,28.6494c-5.38546,5.75573-9.22494,13.85377-11.48459,21.3593a46.36775,46.36775,0,0,0-1.93506,16.72408c.8832,11.74956,6.73815,21.59988,13.35039,31.03129,7.44616,10.62088,14.71783,21.18971,18.185,33.86718,4.53864,16.59505,3.603,35.13839.95594,51.96607-5.20727,33.10355-17.56277,64.1647-34.94158,92.73792a263.93364,263.93364,0,0,1-41.8388,52.74249,282.75631,282.75631,0,0,1-80.08155,54.46686,214.51487,214.51487,0,0,1-28.80294,10.542c-16.7425,4.80381-35.17172,8.70092-52.661,7.08051-13.85629-1.28382-26.98152-8.268-36.617-18.18035l-1.3238,5.01416a232.69728,232.69728,0,0,0,73.53347-33.09731,253.75,253.75,0,0,0,53.137-49.38114c12.56116-15.40016,23.48366-31.97869,33.90988-48.87158,12.50719-20.26454,24.96323-40.69351,34.23135-62.69068,9.85106-23.38073,17.51414-51.45453,5.96-75.64285C261.68484,343.22774,256.50985,346.26826,258.16757,349.73866Z" transform="translate(-58.81188 -115.93762)"/><path d="M135.68653,326.15745a49.1761,49.1761,0,0,1,20.55955-26.462c1.63121-1.02424.12727-3.62107-1.51415-2.59042a52.40872,52.40872,0,0,0-21.93823,28.25489c-.59146,1.84255,2.30413,2.6315,2.89283.79751Z" transform="translate(-58.81188 -115.93762)"/><path class="cls-3" d="M150.92779,317.20834c-.0001.0001-11.6128,11.41582-12.251,18.65212-.0513.58172-.10223,1.8643.69463,2.40506,2.06439,1.40092,6.79517-4.57865,16.52925-10.86125,7.83821-5.059,11.20186-5.322,11.92116-8.79679.76709-3.70564-1.81983-9.38955-5.09537-9.97242C162.51075,308.59668,161.05077,307.08536,150.92779,317.20834Z" transform="translate(-58.81188 -115.93762)"/><path d="M149.86713,316.14768A59.913,59.913,0,0,0,139.49329,329.264c-1.36569,2.44886-3.73035,7.12789-1.5143,9.72736,1.94355,2.27983,4.92035.036,6.664-1.29713,3.78676-2.89534,7.40649-5.96538,11.39663-8.59142,2.13113-1.40256,4.33192-2.68669,6.57064-3.9087a32.84619,32.84619,0,0,0,4.10274-2.43263c2.66266-2.00448,3.15426-5.08264,2.412-8.23082a12.03543,12.03543,0,0,0-2.84723-5.46531,6.69769,6.69769,0,0,0-2.07-1.51125,6.09166,6.09166,0,0,0-1.08659-.36641c.02758.00676.84635.20792-.06181-.02413a4.672,4.672,0,0,0-3.45261.75006c-3.67348,2.0367-6.79878,5.30329-9.73962,8.23407a1.50086,1.50086,0,0,0,2.12132,2.12132,56.133,56.133,0,0,1,8.09907-7.12637c.35574-.238.71854-.46718,1.09426-.67257.14722-.08048.29707-.15481.44676-.23043.34305-.17332-.06385.00725.115-.05337.19317-.06549.38528-.116.581-.17087-.06264.01756-.3179.09.05288.02383a1.00584,1.00584,0,1,0-.15752.00035c-.34848-.054-.36293-.09893.10778.0419a5.262,5.262,0,0,1,3.09333,2.98058,8.69947,8.69947,0,0,1,1.00566,4.86515,3.1163,3.1163,0,0,1-1.10287,2.12024,15.62465,15.62465,0,0,1-3.02828,1.9028c-1.73221.94949-3.46719,1.89041-5.15814,2.91274a105.32105,105.32105,0,0,0-11.32752,8.10114c-1.21151.97171-2.40394,1.97682-3.67191,2.87526a13.11,13.11,0,0,1-1.36244.86793,3.09008,3.09008,0,0,1-.36185.174c-.23968.10588-.4129.16869-.28356.088-.15551.097-.07928-.03025-.07964-.01022.00232-.127.24123.13013.233.1474.01585-.0332-.11919-.236-.11383-.3039a11.31832,11.31832,0,0,1,.189-1.91593,16.1676,16.1676,0,0,1,1.58417-3.85311A56.16294,56.16294,0,0,1,151.98845,318.269C153.36606,316.91206,151.24445,314.791,149.86713,316.14768Z" transform="translate(-58.81188 -115.93762)"/><ellipse class="cls-4" cx="145.78457" cy="329.99312" rx="2.18617" ry="2.00266" transform="translate(-118.74363 -82.30475) rotate(-10.93125)"/></svg>